<svg xmlns="http://www.w3.org/2000/svg" width="20" height="20" viewBox="0 0 20 20" fill="none">
  <path d="M10.0001 3C10.4438 3 10.8532 3.23437 11.0782 3.61875L17.8282 15.1187C18.0563 15.5062 18.0563 15.9844 17.8344 16.3719C17.6126 16.7594 17.1969 17 16.7501 17H3.25007C2.80319 17 2.38757 16.7594 2.16569 16.3719C1.94382 15.9844 1.94694 15.5031 2.17194 15.1187L8.92194 3.61875C9.14694 3.23437 9.55632 3 10.0001 3ZM10.0001 7C9.58444 7 9.25007 7.33437 9.25007 7.75V11.25C9.25007 11.6656 9.58444 12 10.0001 12C10.4157 12 10.7501 11.6656 10.7501 11.25V7.75C10.7501 7.33437 10.4157 7 10.0001 7ZM11.0001 14C11.0001 13.7348 10.8947 13.4804 10.7072 13.2929C10.5196 13.1054 10.2653 13 10.0001 13C9.73485 13 9.4805 13.1054 9.29296 13.2929C9.10542 13.4804 9.00007 13.7348 9.00007 14C9.00007 14.2652 9.10542 14.5196 9.29296 14.7071C9.4805 14.8946 9.73485 15 10.0001 15C10.2653 15 10.5196 14.8946 10.7072 14.7071C10.8947 14.5196 11.0001 14.2652 11.0001 14Z" fill="#FFEAD5"/>
</svg>